<svg xmlns="http://www.w3.org/2000/svg" viewBox="0 0 120 130">
  <!-- Stems -->
  <path d="M32 122 Q30 102 32 82" stroke="#2d5c3c" stroke-width="1.8" fill="none" opacity="0.88"/>
  <path d="M60 122 Q58 98 60 76" stroke="#2d5c3c" stroke-width="1.8" fill="none" opacity="0.88"/>
  <path d="M88 122 Q88 106 86 88" stroke="#2d5c3c" stroke-width="1.8" fill="none" opacity="0.88"/>
  <!-- Leaves -->
  <path d="M31 102 Q18 94 16 82 Q24 90 31 94Z" fill="#2d5c3c" opacity="0.85"/>
  <path d="M33 92 Q44 84 44 72 Q36 80 33 86Z" fill="#3a7050" opacity="0.80"/>
  <path d="M59 96 Q70 88 72 76 Q62 84 59 88Z" fill="#2d5c3c" opacity="0.82"/>
  <path d="M61 86 Q50 78 48 64 Q56 74 61 80Z" fill="#3a7050" opacity="0.78"/>
  <path d="M86 106 Q96 98 98 86 Q90 94 86 98Z" fill="#2d5c3c" opacity="0.82"/>
  <path d="M88 96 Q78 88 76 76 Q84 86 88 90Z" fill="#3a7050" opacity="0.76"/>

  <!-- Left flower: lavender anemone -->
  <circle cx="32" cy="74" r="15" fill="#c8b4dc" opacity="0.10"/>
  <ellipse cx="32" cy="62" rx="5.5" ry="9" fill="#c8b4dc" opacity="0.88"/>
  <ellipse cx="32" cy="86" rx="5.5" ry="9" fill="#c8b4dc" opacity="0.88"/>
  <ellipse cx="20" cy="74" rx="9" ry="5.5" fill="#c8b4dc" opacity="0.88"/>
  <ellipse cx="44" cy="74" rx="9" ry="5.5" fill="#c8b4dc" opacity="0.88"/>
  <ellipse cx="23" cy="65" rx="5.5" ry="9" fill="#cebce0" opacity="0.78" transform="rotate(-45 23 65)"/>
  <ellipse cx="41" cy="65" rx="5.5" ry="9" fill="#cebce0" opacity="0.78" transform="rotate(45 41 65)"/>
  <ellipse cx="23" cy="83" rx="5.5" ry="9" fill="#cebce0" opacity="0.78" transform="rotate(45 23 83)"/>
  <ellipse cx="41" cy="83" rx="5.5" ry="9" fill="#cebce0" opacity="0.78" transform="rotate(-45 41 83)"/>
  <!-- golden center glow -->
  <circle cx="32" cy="74" r="8" fill="#f0c840" opacity="0.22"/>
  <circle cx="32" cy="74" r="6" fill="#f0c840" opacity="0.88"/>
  <circle cx="32" cy="74" r="4" fill="#f8e060"/>
  <circle cx="30" cy="72" r="1" fill="#fff8d0" opacity="0.8"/>

  <!-- Middle flower: blush pink -->
  <circle cx="60" cy="68" r="17" fill="#f0c8cc" opacity="0.08"/>
  <ellipse cx="60" cy="55" rx="6.5" ry="10" fill="#f0bec8" opacity="0.88"/>
  <ellipse cx="60" cy="81" rx="6.5" ry="10" fill="#f0bec8" opacity="0.88"/>
  <ellipse cx="47" cy="68" rx="10" ry="6.5" fill="#f0bec8" opacity="0.88"/>
  <ellipse cx="73" cy="68" rx="10" ry="6.5" fill="#f0bec8" opacity="0.88"/>
  <ellipse cx="51" cy="59" rx="6.5" ry="10" fill="#f4ccd4" opacity="0.78" transform="rotate(-45 51 59)"/>
  <ellipse cx="69" cy="59" rx="6.5" ry="10" fill="#f4ccd4" opacity="0.78" transform="rotate(45 69 59)"/>
  <ellipse cx="51" cy="77" rx="6.5" ry="10" fill="#f4ccd4" opacity="0.78" transform="rotate(45 51 77)"/>
  <ellipse cx="69" cy="77" rx="6.5" ry="10" fill="#f4ccd4" opacity="0.78" transform="rotate(-45 69 77)"/>
  <circle cx="60" cy="68" r="9" fill="#f0c840" opacity="0.22"/>
  <circle cx="60" cy="68" r="7" fill="#f0c840" opacity="0.88"/>
  <circle cx="60" cy="68" r="4.5" fill="#f8e060"/>
  <circle cx="58" cy="66" r="1.2" fill="#fff8d0" opacity="0.8"/>

  <!-- Right flower: small white/cream -->
  <circle cx="86" cy="80" r="12" fill="#f0f0e0" opacity="0.08"/>
  <ellipse cx="86" cy="69" rx="5" ry="8" fill="#f0edd4" opacity="0.88"/>
  <ellipse cx="86" cy="91" rx="5" ry="8" fill="#f0edd4" opacity="0.88"/>
  <ellipse cx="75" cy="80" rx="8" ry="5" fill="#f0edd4" opacity="0.88"/>
  <ellipse cx="97" cy="80" rx="8" ry="5" fill="#f0edd4" opacity="0.88"/>
  <ellipse cx="77" cy="71" rx="5" ry="8" fill="#e8e8cc" opacity="0.76" transform="rotate(-45 77 71)"/>
  <ellipse cx="95" cy="71" rx="5" ry="8" fill="#e8e8cc" opacity="0.76" transform="rotate(45 95 71)"/>
  <ellipse cx="77" cy="89" rx="5" ry="8" fill="#e8e8cc" opacity="0.76" transform="rotate(45 77 89)"/>
  <ellipse cx="95" cy="89" rx="5" ry="8" fill="#e8e8cc" opacity="0.76" transform="rotate(-45 95 89)"/>
  <circle cx="86" cy="80" r="7" fill="#f0c840" opacity="0.88"/>
  <circle cx="86" cy="80" r="4.5" fill="#f8e060"/>
  <circle cx="84" cy="78" r="1" fill="#fff8d0" opacity="0.75"/>

  <!-- Firefly glow dots -->
  <circle cx="11" cy="46" r="2.5" fill="#f8e040" opacity="0.78"/>
  <circle cx="11" cy="46" r="6" fill="#f8e040" opacity="0.18"/>
  <circle cx="108" cy="34" r="2" fill="#f8e848" opacity="0.72"/>
  <circle cx="108" cy="34" r="5" fill="#f8e848" opacity="0.14"/>
  <circle cx="7" cy="105" r="1.8" fill="#f0e050" opacity="0.68"/>
  <circle cx="7" cy="105" r="4.5" fill="#f0e050" opacity="0.13"/>
  <circle cx="114" cy="94" r="2.2" fill="#f8e040" opacity="0.70"/>
  <circle cx="114" cy="94" r="5.5" fill="#f8e040" opacity="0.14"/>
  <circle cx="6" cy="22" r="1.5" fill="#f8e860" opacity="0.60"/>
  <circle cx="6" cy="22" r="4" fill="#f8e860" opacity="0.11"/>
</svg>
