<svg xmlns="http://www.w3.org/2000/svg" viewBox="0 0 120 140">
  <!-- Stem -->
  <path d="M60 135 Q56 110 54 85 Q52 70 55 55" stroke="#3a7050" stroke-width="2.5" fill="none" opacity="0.9"/>
  <!-- Thorns -->
  <path d="M56 100 Q50 96 48 90" stroke="#2d5c3c" stroke-width="1.2" fill="none" opacity="0.7"/>
  <path d="M55 80 Q62 76 64 70" stroke="#2d5c3c" stroke-width="1.2" fill="none" opacity="0.7"/>
  <!-- Leaves -->
  <path d="M54 95 Q36 85 30 70 Q44 78 54 88Z" fill="#2d5c3c" opacity="0.90"/>
  <path d="M54 95 Q36 85 30 70" stroke="#1e4028" stroke-width="0.6" fill="none" opacity="0.40"/>
  <path d="M55 108 Q72 98 76 83 Q64 92 55 100Z" fill="#3a7050" opacity="0.85"/>
  <path d="M54 75 Q40 63 38 48 Q48 58 54 68Z" fill="#2d5c3c" opacity="0.80"/>
  <path d="M54 75 Q40 63 38 48" stroke="#1e4028" stroke-width="0.5" fill="none" opacity="0.35"/>
  <!-- Outer rose petals layer 1 -->
  <ellipse cx="60" cy="42" rx="26" ry="20" fill="#f2ccd4" opacity="0.55"/>
  <ellipse cx="42" cy="46" rx="14" ry="21" fill="#f0c4cc" opacity="0.65" transform="rotate(-22 42 46)"/>
  <ellipse cx="78" cy="46" rx="14" ry="21" fill="#f0c4cc" opacity="0.65" transform="rotate(22 78 46)"/>
  <ellipse cx="60" cy="28" rx="18" ry="13" fill="#f2ccd4" opacity="0.60"/>
  <ellipse cx="37" cy="54" rx="12" ry="17" fill="#ecbfc8" opacity="0.70" transform="rotate(-32 37 54)"/>
  <ellipse cx="83" cy="54" rx="12" ry="17" fill="#ecbfc8" opacity="0.70" transform="rotate(32 83 54)"/>
  <ellipse cx="60" cy="66" rx="20" ry="11" fill="#eabfc8" opacity="0.65"/>
  <!-- Middle petals -->
  <ellipse cx="50" cy="43" rx="12" ry="18" fill="#e4b0bc" opacity="0.82" transform="rotate(-10 50 43)"/>
  <ellipse cx="70" cy="43" rx="12" ry="18" fill="#e4b0bc" opacity="0.82" transform="rotate(10 70 43)"/>
  <ellipse cx="60" cy="34" rx="15" ry="11" fill="#e8b8c4" opacity="0.78"/>
  <ellipse cx="60" cy="59" rx="17" ry="10" fill="#dea8b8" opacity="0.82"/>
  <!-- Inner petals -->
  <ellipse cx="54" cy="48" rx="9" ry="14" fill="#d898a8" opacity="0.90" transform="rotate(-5 54 48)"/>
  <ellipse cx="66" cy="48" rx="9" ry="14" fill="#d898a8" opacity="0.90" transform="rotate(5 66 48)"/>
  <ellipse cx="60" cy="40" rx="11" ry="9" fill="#dca0ae" opacity="0.86"/>
  <!-- Rose heart -->
  <ellipse cx="60" cy="49" rx="9" ry="8" fill="#c8849a" opacity="0.95"/>
  <ellipse cx="60" cy="48" rx="5.5" ry="5" fill="#b87088" opacity="0.98"/>
  <!-- Stamens center -->
  <circle cx="60" cy="49" r="3.5" fill="#a86080"/>
  <circle cx="58" cy="47" r="1" fill="#f0d060" opacity="0.7"/>
  <circle cx="62" cy="47" r="1" fill="#f0d060" opacity="0.7"/>
  <circle cx="60" cy="45" r="0.8" fill="#f0d060" opacity="0.6"/>
  <!-- Subtle glow -->
  <ellipse cx="60" cy="45" rx="20" ry="18" fill="#f0d0d8" opacity="0.06"/>
</svg>
