<svg xmlns="http://www.w3.org/2000/svg" viewBox="0 0 100 130">
  <!-- Main vine stem -->
  <path d="M50 125 Q47 105 44 85 Q42 65 46 48 Q48 35 50 20" stroke="#2d5c3c" stroke-width="1.8" fill="none" opacity="0.88"/>
  <!-- Left side leaves -->
  <path d="M44 108 Q25 98 20 82 Q34 90 44 100Z" fill="#2d5c3c" opacity="0.92"/>
  <path d="M44 108 Q25 98 20 82" stroke="#1e4028" stroke-width="0.5" fill="none" opacity="0.38"/>
  <path d="M43 90 Q22 78 18 62 Q32 72 43 82Z" fill="#3a7050" opacity="0.88"/>
  <path d="M43 90 Q22 78 18 62" stroke="#1e4028" stroke-width="0.5" fill="none" opacity="0.32"/>
  <path d="M44 72 Q26 58 24 42 Q36 54 44 64Z" fill="#2d5c3c" opacity="0.84"/>
  <path d="M44 72 Q26 58 24 42" stroke="#1e4028" stroke-width="0.5" fill="none" opacity="0.28"/>
  <path d="M46 54 Q32 40 34 24 Q42 36 46 46Z" fill="#3a7050" opacity="0.78"/>
  <!-- Right side leaves -->
  <path d="M48 100 Q68 90 70 74 Q58 82 48 92Z" fill="#3a7050" opacity="0.90"/>
  <path d="M48 100 Q68 90 70 74" stroke="#1e4028" stroke-width="0.5" fill="none" opacity="0.35"/>
  <path d="M47 82 Q64 70 68 54 Q56 64 47 74Z" fill="#2d5c3c" opacity="0.86"/>
  <path d="M48 64 Q63 50 64 34 Q54 46 48 56Z" fill="#3a7050" opacity="0.82"/>
  <path d="M49 46 Q62 32 60 16 Q52 28 49 38Z" fill="#2d5c3c" opacity="0.76"/>
  <!-- Tiny buds/berries at nodes -->
  <circle cx="46" cy="86" r="2.8" fill="#f2ccd4" opacity="0.55"/>
  <circle cx="46" cy="86" r="1.5" fill="#e8b0bc" opacity="0.65"/>
  <circle cx="47" cy="68" r="2.2" fill="#f0d4b8" opacity="0.50"/>
  <circle cx="47" cy="68" r="1.2" fill="#e0b888" opacity="0.60"/>
  <circle cx="49" cy="50" r="2" fill="#f2ccd4" opacity="0.48"/>
  <!-- Small curling tendrils -->
  <path d="M44 78 Q38 74 36 68 Q38 72 42 72" stroke="#3a7050" stroke-width="0.8" fill="none" opacity="0.45"/>
  <path d="M47 60 Q53 55 54 48 Q52 54 48 56" stroke="#3a7050" stroke-width="0.8" fill="none" opacity="0.42"/>
</svg>
